<?xml version="1.0" encoding="utf-8"?>
<!-- Generator: Adobe Illustrator 19.2.1, SVG Export Plug-In . SVG Version: 6.00 Build 0)  -->
<svg version="1.1" id="Layer_1" xmlns="http://www.w3.org/2000/svg" xmlns:xlink="http://www.w3.org/1999/xlink" x="0px" y="0px"
	 viewBox="0 0 448 440" style="enable-background:new 0 0 448 440;" xml:space="preserve">
<g>
	<path d="M279.4,311.4c-11.1-1.8-11.3-32.2-11.3-32.2s32.5-32.2,39.6-75.4c19,0,30.8-46,11.8-62.1C320.2,124.6,343.9,8,224,8
		c-119.9,0-96.2,116.6-95.4,133.7c-19,16.2-7.3,62.1,11.8,62.1c7.1,43.2,39.6,75.4,39.6,75.4s-0.3,30.4-11.3,32.2
		C133,317,0,375.7,0,440h224h224C448,375.7,315,317,279.4,311.4z"/>
</g>
</svg>
